<svg xmlns="http://www.w3.org/2000/svg" fill="#FFF" viewBox="0 0 100 100" width="100px" height="100px"><path d="M 19.167969 15.027344 C 18.126776 14.961288 17.059168 15.281049 16.210938 16 C 5.5066221 25.071142 0.03515625 37.133113 0.03515625 49.896484 C 0.03515625 63.22624 6.1000383 75.384467 16.212891 83.955078 C 16.988516 84.611985 17.950103 84.935547 18.900391 84.935547 C 20.028522 84.935547 21.161481 84.479655 21.972656 83.587891 L 21.972656 83.585938 C 23.463956 81.941141 23.288863 79.365612 21.59375 77.927734 L 21.591797 77.927734 C 13.196203 70.813776 8.0136719 60.990004 8.0136719 49.976562 C 8.0136719 39.599151 12.693428 29.565686 21.591797 22.025391 C 23.28801 20.587698 23.463189 18.011832 21.970703 16.367188 C 21.223887 15.544961 20.209161 15.0934 19.167969 15.027344 z M 80.867188 15.027344 C 79.825994 15.093404 78.809316 15.544962 78.0625 16.367188 C 76.570014 18.011833 76.747146 20.587698 78.443359 22.025391 C 87.341729 29.565686 92.021484 39.599151 92.021484 49.976562 C 92.021484 60.990004 86.838024 70.813728 78.443359 77.927734 L 78.441406 77.927734 C 76.74634 79.365612 76.5712 81.941141 78.0625 83.585938 L 78.0625 83.587891 C 78.873675 84.479655 80.006634 84.935547 81.134766 84.935547 C 82.085053 84.935547 83.04664 84.611985 83.822266 83.955078 C 93.935118 75.38442 100 63.22624 100 49.896484 C 100 37.13306 94.526557 25.071122 83.822266 16 C 82.974036 15.281049 81.908379 14.961288 80.867188 15.027344 z M 19.039062 17.023438 C 19.58062 17.057627 20.108051 17.290163 20.490234 17.710938 C 21.253748 18.552291 21.174615 19.757693 20.298828 20.5 C 10.995197 28.383705 6.0136719 38.995975 6.0136719 49.976562 C 6.0136719 61.619123 11.518469 72.01313 20.298828 79.453125 C 21.172998 80.194638 21.252881 81.401076 20.492188 82.242188 C 20.492188 82.242188 20.490234 82.242188 20.490234 82.242188 C 20.490234 82.242188 20.490234 82.244141 20.490234 82.244141 C 20.073543 82.701037 19.49338 82.935547 18.900391 82.935547 C 18.400678 82.935547 17.906234 82.76878 17.505859 82.429688 C 7.8027577 74.206252 2.0351563 62.620729 2.0351562 49.896484 C 2.0351562 37.701855 7.2082213 26.250248 17.503906 17.525391 C 17.941676 17.154341 18.497506 16.989244 19.039062 17.023438 z M 80.994141 17.023438 C 81.535698 16.989248 82.091527 17.154341 82.529297 17.525391 C 92.825006 26.250269 98 37.701909 98 49.896484 C 98 62.620729 92.232445 74.206299 82.529297 82.429688 C 82.128922 82.768779 81.634478 82.935547 81.134766 82.935547 C 80.540897 82.935547 79.959794 82.700424 79.542969 82.242188 C 78.781743 81.40105 78.861968 80.1948 79.736328 79.453125 C 88.515664 72.013131 94.021484 61.619123 94.021484 49.976562 C 94.021484 38.995975 89.039959 28.383705 79.736328 20.5 C 78.860542 19.757693 78.779455 18.552292 79.542969 17.710938 C 79.925152 17.290163 80.452583 17.05763 80.994141 17.023438 z M 45.578125 17.912109 A 1.0001 1.0001 0 0 0 44.623047 18.976562 C 44.623047 18.976562 44.655247 19.351708 44.503906 20.367188 C 44.352567 21.382666 44.012458 22.965353 43.25 25.150391 C 41.725084 29.520466 38.512205 36.306032 31.759766 45.800781 C 24.757986 55.636738 26.843531 63.953048 30.757812 69.470703 C 34.672095 74.988359 40.302734 77.957031 40.302734 77.957031 A 1.0001 1.0001 0 0 0 41.636719 76.572266 C 41.636719 76.572266 36.169597 67.186308 41.679688 57.148438 C 43.61369 53.62635 45.568041 52.776314 49.705078 44.533203 C 49.856563 44.923715 49.890422 44.783505 50.044922 45.398438 C 50.521145 47.293869 50.846358 50.228271 50.148438 54.320312 A 1.0001 1.0001 0 0 0 50.148438 54.322266 C 49.590097 57.629542 49.793468 59.937741 50.578125 61.582031 C 51.362782 63.226322 52.780906 64.080517 54.150391 64.361328 C 55.519875 64.642139 56.860266 64.451668 57.875 64.230469 C 58.153206 64.169819 58.327401 64.116118 58.548828 64.056641 C 59.993798 69.355749 58.301347 72.868863 56.03125 76.550781 L 56.095703 76.488281 C 56.114783 76.534121 56.777054 78.072237 56.777344 78.072266 C 56.777638 78.072295 57.264791 78.000329 57.306641 77.980469 C 57.348491 77.960619 57.363093 77.951269 57.376953 77.943359 A 1.0001 1.0001 0 0 0 57.552734 77.816406 C 57.578784 77.796106 57.615224 77.767543 57.675781 77.720703 C 57.821771 77.607754 58.049459 77.429205 58.341797 77.193359 C 58.926473 76.721669 59.768248 76.016578 60.744141 75.111328 C 62.695927 73.300828 65.189695 70.691787 67.257812 67.511719 C 69.325931 64.33165 70.978986 60.567664 71.15625 56.462891 C 71.333514 52.358118 69.985461 47.944007 66.242188 43.666016 A 1.0001 1.0001 0 0 0 64.708984 43.699219 C 63.616017 45.066408 62.117077 46.032313 60.6875 46.720703 C 61.158862 44.699923 61.734669 41.774055 60.830078 37.669922 C 59.644297 32.289968 55.877687 25.552924 46.232422 18.119141 A 1.0001 1.0001 0 0 0 45.578125 17.912109 z M 46.412109 20.933594 C 54.597461 27.637663 57.869056 33.528729 58.876953 38.101562 C 59.947668 42.959403 58.711116 46.303111 58.335938 48.248047 A 1.0001 1.0001 0 0 0 59.568359 49.40625 C 61.491904 48.90634 63.595604 47.562739 65.333984 45.791016 C 68.258563 49.453509 69.303727 53.007164 69.158203 56.376953 C 69.001936 59.995524 67.519585 63.439568 65.580078 66.421875 C 63.835861 69.103892 61.77075 71.316098 60.003906 73.013672 C 61.149618 70.056301 61.662925 66.708205 60.267578 62.521484 A 1.0001 1.0001 0 0 0 60.025391 62.130859 C 60.024695 62.130164 59.869148 61.999752 59.798828 61.960938 C 59.728508 61.922128 59.666782 61.897729 59.613281 61.880859 C 59.506279 61.847119 59.431308 61.840078 59.373047 61.835938 C 59.256526 61.827638 59.198516 61.835446 59.148438 61.841797 C 59.04828 61.854417 58.993331 61.869976 58.933594 61.884766 C 58.814119 61.914346 58.695051 61.948786 58.550781 61.990234 C 58.262241 62.073134 57.885633 62.180257 57.449219 62.275391 C 56.57639 62.465658 55.476 62.591658 54.552734 62.402344 C 53.629469 62.21303 52.902719 61.810194 52.382812 60.720703 C 51.862907 59.631212 51.602435 57.728474 52.121094 54.65625 C 52.863173 50.305292 52.529605 47.072473 51.986328 44.910156 C 51.443051 42.747839 50.632812 41.574219 50.632812 41.574219 A 1.0001 1.0001 0 0 0 48.912109 41.726562 C 44.054717 52.039226 42.253206 51.946985 39.925781 56.185547 C 35.806152 63.69038 37.319289 70.665014 38.683594 74.496094 C 36.826051 73.184483 34.485621 71.270357 32.388672 68.314453 C 28.803954 63.261359 26.790452 56.229981 33.388672 46.960938 C 40.228232 37.343687 43.538088 30.395518 45.138672 25.808594 C 45.896769 23.636053 46.229196 22.077372 46.412109 20.933594 z M 47.533203 25.019531 A 0.50005 0.50005 0 0 0 47.058594 25.371094 C 47.058594 25.371094 44.847273 32.507798 42.099609 37.087891 C 41.336959 38.358644 40.412466 39.778144 39.515625 41.105469 A 0.50005 0.50005 0 1 0 40.34375 41.666016 C 41.246909 40.329341 42.179681 38.898763 42.957031 37.603516 C 45.578346 33.234035 47.444976 27.402034 47.771484 26.365234 C 48.383404 26.827711 49.971665 28.10203 52.021484 31.027344 A 0.50005 0.50005 0 1 0 52.839844 30.453125 C 50.258069 26.768654 47.816406 25.105469 47.816406 25.105469 A 0.50005 0.50005 0 0 0 47.533203 25.019531 z M 54.109375 32.951172 A 0.50005 0.50005 0 0 0 53.681641 33.697266 C 55.116829 36.325988 55.865234 38.705078 55.865234 38.705078 A 0.50005 0.50005 0 1 0 56.818359 38.404297 C 56.818359 38.404297 56.045406 35.940075 54.558594 33.216797 A 0.50005 0.50005 0 0 0 54.109375 32.951172 z M 38.382812 43.130859 A 0.50005 0.50005 0 0 0 37.970703 43.349609 C 36.836718 44.969304 35.996094 46.115234 35.996094 46.115234 A 0.5002229 0.5002229 0 1 0 36.802734 46.707031 C 36.802734 46.707031 37.651001 45.550181 38.791016 43.921875 A 0.50005 0.50005 0 0 0 38.382812 43.130859 z M 65.496094 49.011719 A 0.50005 0.50005 0 0 0 65.101562 49.830078 C 66.78964 51.953245 67.448704 55.330162 66.525391 58.933594 A 0.50005 0.50005 0 1 0 67.494141 59.181641 C 68.482828 55.323072 67.812689 51.631865 65.884766 49.207031 A 0.50005 0.50005 0 0 0 65.496094 49.011719 z M 66.050781 61.255859 A 0.50005 0.50005 0 0 0 65.583984 61.550781 C 65.172978 62.428047 64.664263 63.303624 64.050781 64.162109 A 0.50005 0.50005 0 1 0 64.863281 64.744141 C 65.5118 63.836626 66.051287 62.907344 66.488281 61.974609 A 0.50005 0.50005 0 0 0 66.050781 61.255859 z"/></svg>