<?xml version="1.0" encoding="utf-8"?>
<!-- Generator: Adobe Illustrator 24.3.0, SVG Export Plug-In . SVG Version: 6.00 Build 0)  -->
<svg fill="#B49BFF" version="1.1" id="Layer_1" xmlns="http://www.w3.org/2000/svg" xmlns:xlink="http://www.w3.org/1999/xlink" x="0px" y="0px"
	 viewBox="0 0 32 32" enable-background="new 0 0 32 32" xml:space="preserve">
<g>
	<path d="M16,28.952c-0.769,0-1.405-0.508-1.966-0.956c-0.38-0.303-0.739-0.59-1.067-0.678c-0.313-0.084-0.806-0.026-1.317,0.049
		c-0.773,0.115-1.593,0.16-2.128-0.15c-0.65-0.376-0.944-1.125-1.204-1.786c-0.181-0.461-0.353-0.897-0.603-1.147
		c-0.25-0.25-0.686-0.421-1.146-0.602c-0.661-0.259-1.411-0.554-1.787-1.205c-0.371-0.64-0.258-1.396-0.15-2.127
		c0.07-0.474,0.143-0.965,0.049-1.316c-0.088-0.328-0.375-0.687-0.678-1.067C3.556,17.405,3.048,16.769,3.048,16
		s0.508-1.405,0.956-1.966c0.303-0.38,0.59-0.739,0.678-1.067c0.094-0.352,0.021-0.842-0.049-1.317
		c-0.108-0.731-0.221-1.487,0.15-2.128c0.376-0.65,1.125-0.944,1.786-1.204C7.03,8.137,7.466,7.966,7.716,7.716
		c0.25-0.25,0.421-0.686,0.602-1.146c0.259-0.661,0.554-1.411,1.205-1.787c0.534-0.308,1.355-0.264,2.127-0.15
		c0.511,0.076,1.003,0.134,1.316,0.049c0.328-0.088,0.687-0.375,1.067-0.678C14.595,3.556,15.231,3.048,16,3.048
		s1.405,0.508,1.966,0.956c0.38,0.303,0.739,0.59,1.067,0.678c0.313,0.084,0.806,0.026,1.316-0.049
		c0.775-0.114,1.594-0.159,2.128,0.15c0.65,0.376,0.944,1.125,1.204,1.786c0.181,0.461,0.353,0.897,0.603,1.147
		c0.25,0.25,0.686,0.421,1.146,0.602c0.661,0.259,1.411,0.554,1.787,1.205c0.371,0.64,0.258,1.396,0.15,2.127
		c-0.07,0.474-0.143,0.965-0.049,1.316c0.088,0.328,0.375,0.687,0.678,1.067c0.448,0.561,0.956,1.197,0.956,1.966
		s-0.508,1.405-0.956,1.966c-0.303,0.38-0.59,0.739-0.678,1.067c-0.094,0.352-0.021,0.842,0.049,1.316
		c0.108,0.731,0.221,1.488-0.15,2.128c-0.376,0.65-1.125,0.944-1.786,1.204c-0.461,0.181-0.897,0.353-1.147,0.603
		c-0.25,0.25-0.421,0.686-0.602,1.146c-0.259,0.661-0.554,1.411-1.205,1.787c-0.533,0.309-1.354,0.265-2.127,0.15
		c-0.511-0.076-1.003-0.133-1.316-0.049c-0.328,0.088-0.687,0.375-1.067,0.678C17.405,28.444,16.769,28.952,16,28.952z
		 M12.564,26.273c0.246,0,0.462,0.026,0.661,0.079c0.531,0.142,0.989,0.508,1.433,0.862c0.475,0.379,0.923,0.737,1.342,0.737
		s0.868-0.358,1.342-0.737c0.444-0.354,0.902-0.72,1.433-0.862c0.484-0.129,1.13-0.062,1.721,0.026
		c0.619,0.091,1.188,0.142,1.48-0.026c0.348-0.202,0.555-0.729,0.774-1.287c0.211-0.537,0.429-1.091,0.826-1.488
		c0.397-0.397,0.952-0.616,1.489-0.826c0.558-0.219,1.085-0.426,1.286-0.774c0.196-0.338,0.113-0.893,0.026-1.48
		c-0.085-0.575-0.173-1.17-0.026-1.721c0.142-0.531,0.508-0.989,0.862-1.433c0.379-0.475,0.737-0.923,0.737-1.342
		s-0.358-0.868-0.737-1.342c-0.354-0.444-0.72-0.902-0.862-1.433c-0.147-0.551-0.06-1.146,0.026-1.721
		c0.087-0.587,0.169-1.142-0.026-1.48c-0.202-0.348-0.729-0.555-1.287-0.774c-0.537-0.211-1.091-0.429-1.488-0.826
		c-0.397-0.397-0.616-0.952-0.826-1.489c-0.219-0.558-0.426-1.085-0.774-1.286c-0.292-0.169-0.862-0.119-1.48-0.026
		c-0.591,0.088-1.237,0.156-1.721,0.026c-0.531-0.142-0.989-0.508-1.433-0.862C16.868,4.406,16.419,4.048,16,4.048
		s-0.868,0.358-1.342,0.737c-0.444,0.354-0.902,0.72-1.433,0.862c-0.484,0.13-1.13,0.062-1.721-0.026
		c-0.619-0.092-1.189-0.143-1.48,0.026C9.675,5.85,9.468,6.376,9.249,6.935C9.038,7.471,8.82,8.026,8.423,8.423
		C8.026,8.82,7.471,9.039,6.934,9.249c-0.558,0.219-1.085,0.426-1.286,0.774c-0.196,0.338-0.113,0.893-0.026,1.48
		c0.085,0.575,0.173,1.17,0.026,1.721c-0.142,0.531-0.508,0.989-0.862,1.433C4.406,15.132,4.048,15.581,4.048,16
		s0.358,0.868,0.737,1.342c0.354,0.444,0.72,0.902,0.862,1.433c0.147,0.552,0.06,1.146-0.026,1.721
		c-0.087,0.587-0.169,1.142,0.026,1.48c0.202,0.348,0.729,0.555,1.287,0.774c0.537,0.211,1.091,0.429,1.488,0.826
		c0.397,0.397,0.616,0.952,0.826,1.489c0.219,0.558,0.426,1.085,0.774,1.286c0.291,0.168,0.861,0.118,1.48,0.026
		C11.852,26.327,12.211,26.273,12.564,26.273z"/>
</g>
<g>
	<g>
		<path d="M16.015,8.15c4.329,0,7.85,3.522,7.85,7.85s-3.522,7.85-7.85,7.85s-7.85-3.522-7.85-7.85S11.687,8.15,16.015,8.15
			 M16.015,7.15c-4.888,0-8.85,3.962-8.85,8.85s3.962,8.85,8.85,8.85s8.85-3.962,8.85-8.85S20.903,7.15,16.015,7.15L16.015,7.15z"/>
	</g>
</g>
<g>
	<path d="M16.016,23.049c-2.525,0-4.873-1.364-6.125-3.559c-0.137-0.24-0.054-0.545,0.186-0.682
		c0.241-0.138,0.545-0.054,0.682,0.186c1.076,1.884,3.09,3.055,5.257,3.055c2.215,0,4.251-1.209,5.313-3.156
		c0.132-0.242,0.436-0.331,0.679-0.199c0.242,0.132,0.332,0.436,0.199,0.679C20.969,21.641,18.597,23.049,16.016,23.049z"/>
</g>
<g>
	<path d="M10.324,13.64c-0.081,0-0.163-0.02-0.239-0.061c-0.242-0.132-0.332-0.436-0.199-0.679c1.238-2.268,3.61-3.676,6.191-3.676
		c2.525,0,4.872,1.363,6.125,3.558c0.137,0.24,0.054,0.545-0.186,0.682c-0.24,0.138-0.545,0.054-0.682-0.186
		c-1.076-1.884-3.09-3.054-5.257-3.054c-2.215,0-4.251,1.209-5.313,3.156C10.672,13.545,10.501,13.64,10.324,13.64z"/>
</g>
</svg>
